<?xml version="1.0" encoding="UTF-8"?>
<svg version="1.1" xmlns="http://www.w3.org/2000/svg" width="1074" height="264">
<path d="M0 0 C6.95296368 0.27306121 13.90521577 0.56009745 20.85693359 0.86328125 C22.8181117 0.9485896 24.7793647 1.03221319 26.74072266 1.11328125 C29.07770567 1.2119691 31.41377078 1.32250901 33.75 1.4375 C35.72226562 1.52837891 35.72226562 1.52837891 37.734375 1.62109375 C40.84818069 1.9823846 42.41613668 2.32763241 45 4 C46.02787781 5.84985352 46.02787781 5.84985352 46.7800293 8.12890625 C47.071297 8.98662628 47.3625647 9.84434631 47.66265869 10.72805786 C47.96347351 11.66342377 48.26428833 12.59878967 48.57421875 13.5625 C48.89976746 14.53387909 49.22531616 15.50525818 49.56072998 16.506073 C50.61664136 19.66635609 51.65193972 22.8329967 52.6875 26 C53.40409918 28.15433518 54.12228038 30.30814478 54.84204102 32.46142578 C56.2584536 36.70300596 57.66830097 40.94666663 59.07226562 45.19238281 C61.47226447 52.43924742 63.93953105 59.66135308 66.4375 66.875 C66.79610107 67.92300781 67.15470215 68.97101563 67.52416992 70.05078125 C67.84490479 70.98019531 68.16563965 71.90960938 68.49609375 72.8671875 C68.76607178 73.65206543 69.0360498 74.43694336 69.31420898 75.24560547 C69.86382003 76.99753367 69.86382003 76.99753367 71 78 C73.37540992 71.67422232 75.74993182 65.34811176 78.12380981 59.02175903 C78.95529633 56.80595566 79.78689959 54.5901961 80.61862183 52.3744812 C86.53543858 36.61741319 86.53543858 36.61741319 92.38671875 20.8359375 C92.62501404 20.18923599 92.86330933 19.54253448 93.10882568 18.87623596 C94.16643097 16.00388581 95.22018326 13.13019517 96.26904297 10.25463867 C96.62498535 9.28502197 96.98092773 8.31540527 97.34765625 7.31640625 C97.64679932 6.49599854 97.94594238 5.67559082 98.25415039 4.83032227 C99 3 99 3 100 2 C102.8116338 1.91138008 105.59858255 1.88477645 108.41015625 1.90234375 C109.25219101 1.9037587 110.09422577 1.90517365 110.96177673 1.90663147 C113.66205335 1.91224737 116.36224828 1.92480252 119.0625 1.9375 C120.88867068 1.94251295 122.71484266 1.94707621 124.54101562 1.95117188 C129.02737542 1.96222196 133.51367384 1.97949721 138 2 C139.11453659 5.34360978 138.89849584 6.17432824 137.953125 9.453125 C137.69112305 10.36586182 137.42912109 11.27859863 137.15917969 12.21899414 C136.85915039 13.21922607 136.55912109 14.21945801 136.25 15.25 C135.93708008 16.30630615 135.62416016 17.3626123 135.30175781 18.45092773 C130.65010993 33.82696093 125.05949577 48.90375106 119.54296875 63.98632812 C114.58801348 77.53868161 109.73318586 91.08414141 105.875 105 C105.59172852 105.99491455 105.30845703 106.9898291 105.01660156 108.01489258 C104.22650458 110.9966867 103.58703546 113.97191752 103 117 C102.76804932 118.03745361 102.53609863 119.07490723 102.29711914 120.14379883 C100.24485609 133.71919599 106.15677136 146.13405533 110.6875 158.6875 C111.56963379 161.1974203 112.44930571 163.70804049 113.32495117 166.22021484 C115.06280258 171.19714931 116.81459917 176.16895963 118.57714844 181.13720703 C121.75128649 190.10127399 124.80829924 199.10275281 127.8125 208.125 C128.05242676 208.8427359 128.29235352 209.5604718 128.53955078 210.29995728 C140.23706356 245.35380537 140.23706356 245.35380537 140 261 C132.1850586 261.27190032 124.59955024 260.35148263 116.86889648 259.34594727 C114.67571685 259.06096892 112.48156677 258.78471435 110.28710938 258.50976562 C98.65858286 257.03146694 98.65858286 257.03146694 95 256 C94.8047876 255.21802246 94.6095752 254.43604492 94.40844727 253.63037109 C83.18424434 207.07536291 83.18424434 207.07536291 65 163 C63.01911652 165.97132521 62.02785301 168.46152001 60.86450195 171.82226562 C60.44679031 173.02202026 60.02907867 174.2217749 59.59870911 175.45788574 C59.14520239 176.77399656 58.6917273 178.09011828 58.23828125 179.40625 C57.76508584 180.76906755 57.29146079 182.13173599 56.81742859 183.4942627 C55.56542715 187.0958952 54.31822328 190.69916925 53.07232666 194.30291748 C51.82949332 197.89664161 50.58393481 201.48941934 49.33789062 205.08203125 C49.09551603 205.78093979 48.85314144 206.47984833 48.60342216 207.19993591 C46.71509999 212.64199302 44.8172798 218.08069781 42.9131031 223.51722717 C41.54833365 227.41697573 40.20571259 231.32372589 38.87255859 235.234375 C38.26360554 236.97948456 37.65382415 238.72430543 37.04296875 240.46875 C36.78606766 241.24182495 36.52916656 242.0148999 36.26448059 242.81140137 C34.5312444 247.67476558 34.5312444 247.67476558 32.31274414 249.03295898 C28.81219137 248.9830725 25.40587377 248.53474829 21.953125 248.00390625 C21.18192322 247.89151108 20.41072144 247.77911591 19.6161499 247.66331482 C17.15963718 247.30360695 14.70487467 246.93320577 12.25 246.5625 C10.58213548 246.31635 8.91416763 246.0708991 7.24609375 245.82617188 C3.16282025 245.22554571 -0.91891691 244.61532609 -5 244 C-3.41471029 234.07521916 -1.61592678 224.5230142 1.6875 215 C2.06197266 213.8960791 2.43644531 212.7921582 2.82226562 211.65478516 C7.21174457 198.97768237 12.18283116 186.51751228 17.1027832 174.03930664 C20.9767318 164.21185346 24.7946501 154.37631994 28.375 144.4375 C28.725625 143.47054199 29.07625 142.50358398 29.4375 141.50732422 C34.13024555 128.32805355 34.76553822 119.20381008 30.6015625 105.76953125 C30.24381744 104.59034622 29.88607239 103.41116119 29.51748657 102.19624329 C25.07272274 87.71435824 20.0965294 73.41172669 15.13085938 59.10229492 C10.96226335 47.06670479 6.85043478 35.04611166 3.46875 22.76171875 C3.2258725 21.88496994 2.982995 21.00822113 2.73275757 20.10490417 C0.95167365 13.4117477 0.02622577 6.94982903 0 0 Z " fill="#DA1F2B" transform="translate(934,3)"/>
<path d="M0 0 C13.86 0 27.72 0 42 0 C43.99900664 1.99900664 43.2434835 5.98979318 43.29711914 8.73266602 C43.31677231 9.5423584 43.33642548 10.35205078 43.35667419 11.1862793 C43.42078987 13.87540243 43.47798494 16.56462723 43.53515625 19.25390625 C43.57814335 21.1133674 43.62155978 22.97281867 43.66539001 24.83226013 C43.77982337 29.73618667 43.88839912 34.64022635 43.99578857 39.54431152 C44.10631053 44.54459575 44.22232613 49.5447521 44.33789062 54.54492188 C44.5639952 64.36316343 44.78391683 74.18153314 45 84 C45.33274933 83.38755936 45.66549866 82.77511871 46.0083313 82.14411926 C47.54876014 79.31034293 49.09077895 76.47743466 50.6328125 73.64453125 C51.41748901 72.20019714 51.41748901 72.20019714 52.21801758 70.72668457 C55.69764362 64.33753312 59.250066 57.99528762 62.875 51.6875 C63.42309326 50.73230469 63.97118652 49.77710938 64.53588867 48.79296875 C64.9713501 48.03628906 65.40681152 47.27960937 65.85546875 46.5 C70.46166846 38.46732634 74.96476004 30.37671957 79.48046875 22.29296875 C83.64057055 14.85465132 87.82169086 7.42810514 92 0 C105.86 0 119.72 0 134 0 C129.5 14.625 129.5 14.625 126.5 20.375 C126.16379639 21.02452637 125.82759277 21.67405273 125.48120117 22.34326172 C124.73590408 23.77999103 123.98595807 25.2143161 123.23193359 26.64648438 C121.89131342 29.20763746 120.57947596 31.78240465 119.26953125 34.359375 C108.28948387 55.84247677 96.44880753 77.80225203 81.86328125 97.10546875 C80.65225204 99.76315729 81.25665142 101.19760363 82 104 C82.81638081 105.77426306 83.70102495 107.51790799 84.6328125 109.234375 C85.18388672 110.26578613 85.73496094 111.29719727 86.30273438 112.35986328 C87.20475586 114.03798096 87.20475586 114.03798096 88.125 115.75 C106.22026541 149.93243219 124.60118133 187.40472531 134 225 C119.15 225 104.3 225 89 225 C86.36 219.72 83.72 214.44 81 209 C79.78699219 206.58558594 78.57398438 204.17117187 77.32421875 201.68359375 C71.02791383 189.14471829 64.80706127 176.58379314 58.80615234 163.89990234 C54.79192079 155.46163724 50.46238181 147.20857889 46 139 C45.11258677 145.14125723 44.82330071 151.13945901 44.75390625 157.33984375 C44.72221761 159.37899222 44.69022316 161.41813595 44.65795898 163.45727539 C44.64256073 164.51641144 44.62716248 165.57554749 44.61129761 166.66677856 C44.30051332 187.49748931 43.52095541 208.22345376 42 229 C28.0444054 230.16296622 14.00396769 230 0 230 C0 154.1 0 78.2 0 0 Z " fill="#DA1F2B" transform="translate(337,1)"/>
<path d="M0 0 C3.2379865 3.19432825 5.51920279 6.76488408 7.73828125 10.71484375 C8.16882813 11.44574219 8.599375 12.17664063 9.04296875 12.9296875 C30.58245693 54.20255771 24.83560507 137.02621902 11.85620117 180.65185547 C7.43892073 194.41144884 0.3983052 205.39660206 -12.26171875 212.71484375 C-28.8145896 220.49734344 -49.53911326 220.29817284 -66.76171875 214.90234375 C-79.26159069 210.2278764 -88.19315249 204.96202799 -94.26171875 192.71484375 C-101.44723465 176.3597516 -104.99520804 159.21255618 -105.78515625 141.40234375 C-105.82627533 140.50064453 -105.86739441 139.59894531 -105.90975952 138.66992188 C-107.11101495 110.85571714 -107.68258765 82.88787064 -107.11956787 55.05102539 C-107.09004814 53.57098643 -107.06603853 52.09082394 -107.04840088 50.6105957 C-106.81630106 33.52605238 -103.72752625 16.97675225 -92.26171875 3.71484375 C-69.1194423 -17.17496623 -24.87025041 -20.23604226 0 0 Z M-54.01171875 25.96484375 C-64.27781978 38.51230056 -64.46859859 53.40191695 -64.44921875 68.90234375 C-64.44927917 69.64484375 -64.4493396 70.38734375 -64.44940186 71.15234375 C-64.43385254 84.85309536 -63.98323143 98.52821557 -63.38671875 112.21484375 C-63.34751312 113.14871918 -63.3083075 114.0825946 -63.26791382 115.04476929 C-62.85146484 124.7677987 -62.28549795 134.45704482 -61.30078125 144.140625 C-61.22449493 144.90802002 -61.14820862 145.67541504 -61.0696106 146.46606445 C-59.80618334 158.06901393 -56.1447529 166.97888546 -47.76171875 175.15234375 C-44.77404369 177.01964066 -42.78767136 177.6413864 -39.26171875 177.71484375 C-35.16257242 176.1532642 -33.1860145 173.72847203 -31.171875 169.86328125 C-26.68475603 159.27136953 -26.11111895 148.26542396 -26.11645508 136.921875 C-26.11309647 135.88163177 -26.10973785 134.84138855 -26.10627747 133.7696228 C-26.09683397 130.35551741 -26.09482794 126.94146137 -26.09375 123.52734375 C-26.09053374 121.14038066 -26.08716939 118.75341776 -26.08366394 116.36645508 C-26.07768985 111.37353051 -26.07582236 106.3806232 -26.07641602 101.38769531 C-26.07651775 95.00244144 -26.0628464 88.61729849 -26.04564381 82.23207092 C-26.03450723 77.30602513 -26.03249729 72.38000606 -26.03302574 67.45394897 C-26.03184887 65.10012427 -26.02744358 62.74629881 -26.01969337 60.39248657 C-26.00985649 57.09751668 -26.01278581 53.80278655 -26.01879883 50.5078125 C-26.01317932 49.54442963 -26.00755981 48.58104675 -26.00177002 47.58847046 C-26.04589518 38.03550575 -27.03463817 29.94192433 -34.07421875 22.90234375 C-41.32369706 18.96691267 -48.00652892 21.05150662 -54.01171875 25.96484375 Z " fill="#DA1F2B" transform="translate(584.26171875,13.28515625)"/>
<path d="M0 0 C9.15674967 8.21913042 13.10552568 20.57224815 14.10546875 32.546875 C14.41020672 40.22318583 14.24186798 47.86305172 14.10546875 55.546875 C0.24546875 55.546875 -13.61453125 55.546875 -27.89453125 55.546875 C-28.88453125 49.276875 -29.87453125 43.006875 -30.89453125 36.546875 C-33.86079381 28.95052208 -33.86079381 28.95052208 -37.23828125 26.99609375 C-40.52876386 26.43961507 -43.11250079 26.7650821 -46.39453125 27.359375 C-47.49796875 27.55144531 -48.60140625 27.74351563 -49.73828125 27.94140625 C-52.4598759 28.46349433 -55.1789042 28.99462995 -57.89453125 29.546875 C-60.61711787 42.55208788 -61.13455692 53.5036049 -54.19921875 65.47265625 C-47.40953493 75.18987581 -38.83453608 82.95918778 -29.625 90.32421875 C-26.04119398 93.24150863 -22.63100891 96.32634827 -19.22265625 99.4453125 C-17.17686388 101.29201769 -15.08199445 103.04334846 -12.95703125 104.796875 C3.94978367 119.5774779 13.77718451 138.79217958 15.2890625 161.27734375 C15.79547028 181.44428882 10.9098357 202.23477816 -3.2265625 217.12890625 C-17.31416896 229.89644417 -35.66434332 236.17394563 -54.62109375 235.80078125 C-70.8335039 234.5432554 -84.98850514 230.42444878 -96.20703125 218.109375 C-106.6255907 205.10056597 -107.06884212 188.24072269 -107.01953125 172.296875 C-107.02339844 171.03101563 -107.02726563 169.76515625 -107.03125 168.4609375 C-107.02996094 167.24664062 -107.02867187 166.03234375 -107.02734375 164.78125 C-107.02621582 163.68006836 -107.02508789 162.57888672 -107.02392578 161.44433594 C-106.91310094 158.96269589 -106.61622226 156.91046681 -105.89453125 154.546875 C-92.19562487 154.40450761 -78.57392999 154.81595928 -64.89453125 155.546875 C-64.85489258 156.13065918 -64.81525391 156.71444336 -64.77441406 157.31591797 C-64.51480019 174.12258756 -64.51480019 174.12258756 -57.01953125 188.234375 C-52.74982469 190.8715467 -48.17583943 190.86934563 -43.296875 190.1796875 C-36.97550924 188.63510039 -33.3142799 186.08758274 -29.89453125 180.546875 C-27.37038994 175.49859238 -27.54515834 170.91755792 -28.89453125 165.546875 C-34.75567896 150.80201462 -48.85033444 139.39318091 -59.89453125 128.546875 C-71.1929083 117.45094328 -82.23500261 106.56736202 -91.01953125 93.296875 C-91.43275635 92.67337158 -91.84598145 92.04986816 -92.27172852 91.4074707 C-104.35892125 72.68977681 -109.689359 52.81678184 -105.375 30.64428711 C-102.4539886 17.17823067 -96.86206691 2.87166033 -85.14453125 -5.20703125 C-62.11644026 -17.96043581 -21.0375743 -16.13603637 0 0 Z " fill="#DA1F2B" transform="translate(235.89453125,12.453125)"/>
<path d="M0 0 C1.09976669 -0.0033284 2.19953339 -0.0066568 3.33262634 -0.01008606 C5.63230986 -0.01509626 7.93200049 -0.01749624 10.23168945 -0.01733398 C13.71122324 -0.01952897 17.19044349 -0.0377717 20.66992188 -0.05664062 C42.16679773 -0.11177116 64.28414815 0.48210118 80.96484375 15.91796875 C94.52281129 30.43072274 94.28291769 50.90430864 94.11889648 69.51245117 C94.08992547 73.09536194 94.09832944 76.67678742 94.11132812 80.25976562 C94.093188 100.31432253 93.61492336 121.31390668 79.65234375 137.16796875 C79.12898438 137.77253906 78.605625 138.37710938 78.06640625 139 C62.91766887 155.32223112 37.6634144 158.70945083 16.65234375 161.16796875 C15.99234375 161.16796875 15.33234375 161.16796875 14.65234375 161.16796875 C14.65456436 162.21286972 14.65678497 163.25777069 14.65907288 164.33433533 C14.67938944 174.20606311 14.69435683 184.07778662 14.70415592 193.9495306 C14.70936315 199.0240612 14.71642142 204.09857485 14.7277832 209.1730957 C14.73868903 214.07493315 14.74463684 218.97675434 14.74722099 223.87860298 C14.74906141 225.74398619 14.75265519 227.60936855 14.75807381 229.4747448 C14.76538649 232.09768435 14.76633041 234.72055767 14.76586914 237.34350586 C14.76946442 238.10596115 14.77305969 238.86841644 14.77676392 239.65397644 C14.76686679 244.89227398 14.30132916 249.96919442 13.65234375 255.16796875 C10.75762667 255.63435711 7.86181231 256.09092865 4.96484375 256.54296875 C3.79791992 256.73246094 3.79791992 256.73246094 2.60742188 256.92578125 C-7.36495317 258.46591639 -17.24182574 259.2055087 -27.34765625 260.16796875 C-27.34765625 174.69796875 -27.34765625 89.22796875 -27.34765625 1.16796875 C-18.16284965 0.55564831 -9.17355794 0.01004681 0 0 Z M14.65234375 40.16796875 C14.48522576 65.85014708 14.96078525 91.49569861 15.65234375 117.16796875 C28.55022694 116.10358033 36.64222791 112.83279889 45.65234375 103.16796875 C54.07503229 92.82938968 57.51552147 81.3436437 56.65234375 68.16796875 C55.2865905 59.5349046 51.22052272 52.90408655 44.46484375 47.37890625 C35.50247656 41.39416763 25.22073579 39.95983849 14.65234375 40.16796875 Z " fill="#DA1F2B" transform="translate(27.34765625,3.83203125)"/>
<path d="M0 0 C0.73410095 -0.00281982 1.4682019 -0.00563965 2.22454834 -0.00854492 C2.99979858 -0.00652069 3.77504883 -0.00449646 4.5737915 -0.00241089 C5.83410187 -0.00503937 5.83410187 -0.00503937 7.11987305 -0.00772095 C9.8756929 -0.01209337 12.63144764 -0.0092167 15.38726807 -0.00582886 C17.32006848 -0.00650347 19.25286882 -0.00747481 21.18566895 -0.00872803 C25.23041596 -0.01019898 29.27514083 -0.00807076 33.31988525 -0.00338745 C38.47510428 0.00229413 43.63027104 -0.00096304 48.78548813 -0.00695992 C52.77661524 -0.0105949 56.76773023 -0.00941325 60.75885773 -0.00683212 C62.65804297 -0.00617016 64.55722936 -0.00696539 66.45641327 -0.00931168 C76.27792499 -0.01877993 86.00190352 0.03521164 95.77789307 1.12698364 C96.95101067 13.79862335 96.87975586 26.41137232 96.77789307 39.12698364 C52.43384162 40.33598686 52.43384162 40.33598686 30.77789307 40.12698364 C30.88617432 41.66612427 30.88617432 41.66612427 30.99664307 43.23635864 C32.10568916 60.86248161 31.84377291 78.47118539 31.77789307 96.12698364 C48.27789307 96.12698364 64.77789307 96.12698364 81.77789307 96.12698364 C82.38395264 102.18757943 82.9016288 107.66776465 82.87554932 113.66604614 C82.87305176 114.85923462 82.8705542 116.0524231 82.86798096 117.2817688 C82.85887695 118.7569397 82.84977295 120.2321106 82.84039307 121.75198364 C82.81976807 126.49573364 82.79914307 131.23948364 82.77789307 136.12698364 C65.61789307 136.12698364 48.45789307 136.12698364 30.77789307 136.12698364 C30.77789307 166.15698364 30.77789307 196.18698364 30.77789307 227.12698364 C16.91789307 227.12698364 3.05789307 227.12698364 -11.22210693 227.12698364 C-13.08662458 225.26246599 -12.34490148 222.58998292 -12.35118824 220.10895151 C-12.3482754 219.23640098 -12.34536256 218.36385046 -12.34236145 217.46485901 C-12.34321588 216.5452053 -12.3440703 215.6255516 -12.34495062 214.6780296 C-12.34660824 211.57172087 -12.34107945 208.4654652 -12.33563232 205.35916138 C-12.33535049 203.14229331 -12.33550812 200.92542514 -12.33607483 198.70855713 C-12.33636294 192.66954464 -12.33046403 186.63055181 -12.32350087 180.59154391 C-12.31726958 174.28809632 -12.31666371 167.98464832 -12.31547546 161.68119812 C-12.31271577 151.09451969 -12.30646026 140.50784775 -12.29754639 129.9211731 C-12.28837296 119.01492347 -12.28129179 108.1086758 -12.27703857 97.2024231 C-12.27677585 96.53061181 -12.27651313 95.85880053 -12.27624244 95.16663133 C-12.27493744 91.79648595 -12.27367373 88.42634055 -12.27243054 85.05619514 C-12.26196464 57.07978625 -12.24436391 29.10338546 -12.22210693 1.12698364 C-3.68203321 0.00221767 -3.68203321 0.00221767 0 0 Z " fill="#DA1F2B" transform="translate(636.2221069335938,-0.126983642578125)"/>
<path d="M0 0 C2.57145422 -0.00497028 5.14289875 -0.00860595 7.71435547 -0.01147461 C8.43918625 -0.01301292 9.16401703 -0.01455124 9.91081238 -0.01613617 C14.67351826 -0.02012106 19.37597054 0.09828361 24.125 0.4375 C25.42695312 0.52773438 26.72890625 0.61796875 28.0703125 0.7109375 C29.36710938 0.80632813 30.66390625 0.90171875 32 1 C33.37235989 1.09686481 34.74475581 1.19322048 36.1171875 1.2890625 C39.41184518 1.52108065 42.70605567 1.75810096 46 2 C47.30188301 12.33054545 47.15210516 22.67171458 47.125 33.0625 C47.12367065 34.55316483 47.12367065 34.55316483 47.12231445 36.07394409 C47.10405603 53.91680851 46.78906904 71.74918392 46.42880249 89.58786011 C45.97110005 112.76777023 45.91473274 135.94133214 45.9375 159.125 C45.93835602 159.99917194 45.93921204 160.87334389 45.94009399 161.77400589 C45.95142388 172.51602537 45.97146221 183.25801263 46 194 C46.67189865 194.05240341 47.3437973 194.10480682 48.03605652 194.15879822 C61.14001615 195.18435347 74.23500006 196.23863953 87.3125 197.5625 C88.59705078 197.68818359 89.88160156 197.81386719 91.20507812 197.94335938 C92.43291016 198.06646484 93.66074219 198.18957031 94.92578125 198.31640625 C96.00255127 198.42412354 97.07932129 198.53184082 98.1887207 198.64282227 C101 199 101 199 105 200 C105.33 212.54 105.66 225.08 106 238 C93.2527956 237.38533371 80.56615488 236.53452119 67.85546875 235.40625 C66.10339748 235.25291376 64.35130658 235.09980169 62.59919739 234.94689941 C58.97146289 234.62960168 55.3439348 234.31007061 51.71655273 233.98876953 C47.0781976 233.57804386 42.43941157 233.1724363 37.80047131 232.76837921 C34.20148599 232.45445613 30.60270833 232.13820415 27.00399208 231.82121277 C25.29248975 231.67067157 23.58093104 231.52076981 21.86931419 231.37153625 C19.48712767 231.16341938 17.10523163 230.95224241 14.72338867 230.74023438 C14.0267511 230.67994553 13.33011353 230.61965668 12.61236572 230.55754089 C8.70380451 230.20591636 4.86202544 229.69612111 1 229 C-0.38696526 218.28699583 -0.13339355 207.51781295 -0.11352539 196.73950195 C-0.11324299 194.59012351 -0.11340229 192.44074497 -0.1139679 190.29136658 C-0.1142538 184.48227735 -0.10839059 178.67320894 -0.10139394 172.86412454 C-0.09512587 166.7836189 -0.09455387 160.70311274 -0.09336853 154.62260437 C-0.09026538 143.11985994 -0.08206572 131.61712506 -0.07201904 120.11438483 C-0.06082631 107.0140175 -0.0553395 93.91364971 -0.05032361 80.81327879 C-0.03988223 53.87551391 -0.02230251 26.93775749 0 0 Z " fill="#DA1F2B" transform="translate(749,1)"/>
<path d="M0 0 C7.95211322 -0.11963687 15.86744572 0.106063 23.8125 0.4375 C24.80258057 0.47673584 25.79266113 0.51597168 26.81274414 0.55639648 C27.76785889 0.59837158 28.72297363 0.64034668 29.70703125 0.68359375 C30.5575708 0.72025146 31.40811035 0.75690918 32.28442383 0.79467773 C35.53848821 1.04071461 38.76944591 1.53849227 42 2 C42 80.87 42 159.74 42 241 C29.13 240.01 16.26 239.02 3 238 C-1.20293436 229.59413129 -1.03487696 218.84300047 -1.52392578 209.51611328 C-1.5655591 208.7404558 -1.60719242 207.96479832 -1.65008736 207.16563606 C-2.07047044 199.06938953 -2.34239543 190.9712718 -2.5546875 182.8671875 C-2.57562344 182.08669918 -2.59655937 181.30621086 -2.61812973 180.50207138 C-3.09807369 162.24035954 -3.15785893 143.98197701 -3.12877274 125.71494675 C-3.12492899 123.07625023 -3.12291244 120.43755741 -3.12130737 117.79885864 C-3.10150348 90.19056372 -2.89271658 62.59597427 -2 35 C-1.9783075 34.31794495 -1.95661499 33.63588989 -1.93426514 32.9331665 C-1.58030848 21.91571407 -1.06975261 10.97275375 0 0 Z " fill="#DA1F2B" transform="translate(871,3)"/>
<path d="M0 0 C13.53 0 27.06 0 41 0 C41.02269446 25.50682825 41.04106437 51.01364814 41.05181217 76.52048397 C41.05693826 88.36741946 41.06390944 100.21434817 41.07543945 112.0612793 C41.08550027 122.40368246 41.09188013 132.74608071 41.09408849 143.08848864 C41.09537654 148.54957315 41.09833827 154.01064361 41.10573006 159.47172356 C41.13768492 184.00141765 40.96861936 208.48718798 40 233 C26.72869212 234.32713079 13.33749935 234 0 234 C0 156.78 0 79.56 0 0 Z " fill="#DA1F2B" transform="translate(270,1)"/>
</svg>
